<?xml version="1.0" encoding="iso-8859-1"?>
<!-- Generator: Adobe Illustrator 21.0.0, SVG Export Plug-In . SVG Version: 6.00 Build 0)  -->
<svg version="1.1" id="Capa_1" xmlns="http://www.w3.org/2000/svg" xmlns:xlink="http://www.w3.org/1999/xlink" x="0px" y="0px"
	 viewBox="0 0 511.999 511.999" style="enable-background:new 0 0 511.999 511.999;" xml:space="preserve">
<g>
	<g>
		<path d="M1.558,285.52l12.404,111.543c4.164,37.445,35.715,65.683,73.392,65.683h19.776l-20.199,25.26
			c-5.093,6.371-4.059,15.665,2.312,20.758c2.723,2.178,5.979,3.235,9.214,3.235c4.333,0,8.628-1.899,11.544-5.546l34.95-43.708
			h222.1l34.95,43.708c2.917,3.647,7.21,5.546,11.544,5.546c3.234,0,6.491-1.058,9.214-3.235c6.37-5.093,7.405-14.387,2.312-20.758
			l-20.199-25.26h19.776c37.676,0,69.229-28.238,73.392-65.683l12.404-111.543H1.558z"/>
	</g>
</g>
<g>
	<g>
		<path d="M467.687,196.906H44.313c-5.177,0-10.146,0.901-14.769,2.54V73.844c0-24.431,19.876-44.307,44.307-44.307h34.461
			c8.144,0,14.769,6.625,14.769,14.769v1.486c-33.665,6.861-59.075,36.697-59.075,72.359v19.692c0,8.156,6.613,14.769,14.769,14.769
			h118.151c8.156,0,14.769-6.612,14.769-14.769v-19.692c0-35.662-25.41-65.497-59.076-72.359v-1.486
			C152.617,19.876,132.742,0,108.311,0H73.85C33.132,0,0.006,33.127,0.006,73.844v182.138h0h511.987v-14.769
			C511.993,216.782,492.117,196.906,467.687,196.906z"/>
	</g>
</g>
<g>
</g>
<g>
</g>
<g>
</g>
<g>
</g>
<g>
</g>
<g>
</g>
<g>
</g>
<g>
</g>
<g>
</g>
<g>
</g>
<g>
</g>
<g>
</g>
<g>
</g>
<g>
</g>
<g>
</g>
</svg>
