<?xml version="1.0" encoding="utf-8"?>
<!-- Generator: Adobe Illustrator 16.0.0, SVG Export Plug-In . SVG Version: 6.00 Build 0)  -->
<!DOCTYPE svg PUBLIC "-//W3C//DTD SVG 1.1//EN" "http://www.w3.org/Graphics/SVG/1.1/DTD/svg11.dtd">
<svg version="1.1" id="Layer_1" xmlns="http://www.w3.org/2000/svg" xmlns:xlink="http://www.w3.org/1999/xlink" x="0px" y="0px"
	 width="351.1px" height="121.1px" viewBox="0 0 351.1 121.1" enable-background="new 0 0 351.1 121.1" xml:space="preserve">
<g>
	<path fill-rule="evenodd" clip-rule="evenodd" fill="#040404" d="M64.7,2.1c19.3,0,38.6,0.1,58-0.1c3.9,0,4.6,1.1,4.6,4.8
		c-0.1,36.1-0.1,72.3,0,108.4c0,3.7-0.8,4.7-4.7,4.7c-38.6-0.2-77.3-0.1-115.9,0c-3.5,0-4.8-0.5-4.8-4.5c0.2-36.3,0.2-72.6,0-108.9
		c0-4.1,1.4-4.5,4.8-4.4C26.1,2.2,45.4,2.1,64.7,2.1z"/>
	<path fill-rule="evenodd" clip-rule="evenodd" fill="#010101" d="M215,43.8c0.2-29.2,26.8-35.3,42.8-26.8c11.4,6.1,17,22,13,36.7
		c-4.1,14.7-15.6,22.3-31.4,20.6c-13.9-1.5-23.6-12.3-24.4-27C215,46.1,215,44.9,215,43.8z"/>
	<path fill-rule="evenodd" clip-rule="evenodd" fill="#020202" d="M302.2,67.4c7-17.1,13.7-33.4,20.4-49.6c0.4-1.1,0.9-2.2,1.6-3
		c0.8-1,2.3-0.9,3.3-0.5c1.8,0.6,0.5,2,0.2,2.9c-7.4,18.1-15,36.1-22.4,54.2c-0.6,1.4-1,2.6-3,2.7c-2.3,0.1-2.6-1.5-3.3-3
		c-7.3-17.6-14.6-35.2-21.8-52.9c-0.5-1.1-2.4-2.9-0.4-3.8c1.9-0.9,3.7-0.1,4.7,2.3c2.8,7.1,5.8,14.1,8.7,21.2
		C294,47.5,297.9,57.1,302.2,67.4z"/>
	<path fill-rule="evenodd" clip-rule="evenodd" fill="#050505" d="M201,37.5c0,6.6,0.4,13.3-0.1,19.9c-0.9,12.5-9.5,18.9-21.9,16.7
		c-1.6-0.3-3.7,0-3.5-2.5c0.3-2.7,2.4-1.7,3.9-1.4c10.8,1.7,16.9-3.6,17-15c0.1-11.8,0-23.6,0-35.4c0-1.2,0-2.3,0-3.5
		c0-1.7,0.9-2.2,2.5-2.2c1.9-0.1,2.2,1,2.2,2.5c0,7,0,14,0,20.9C201.1,37.5,201.1,37.5,201,37.5z"/>
	<path fill-rule="evenodd" clip-rule="evenodd" fill="#0A0A0A" d="M344,44.6c0,8.8,0,17.6,0,26.4c0,1.3,0.7,3.1-1.9,3.1
		c-2.3,0-2.7-1-2.7-3c0-17.9,0-35.9,0-53.8c0-1.8,0.1-3.2,2.6-3.2c2.6,0,1.9,1.8,1.9,3.1C344,26.3,344,35.4,344,44.6z"/>
	<path fill-rule="evenodd" clip-rule="evenodd" fill="#121212" d="M223.2,108c-2.6,0.2-2.9-1.5-3.7-2.7c-0.6-0.9-0.9-2.5-2.4-2.1
		c-1.6,0.4-0.6,2-0.9,3c-0.2,0.6-0.2,1.2-0.4,2c-1.6-1.9-2.7-11.5-1.4-12.5c1.8-1.5,4-0.9,6,0c2,0.9,3,2.8,1.7,4.3
		C219.4,103.1,221.8,105.3,223.2,108z"/>
	<path fill-rule="evenodd" clip-rule="evenodd" fill="#1B1B1B" d="M240.6,96.1c-1.5,2.2-5.4-0.9-5.5,2.7c-0.1,3.3,3.9,0.2,4.9,2.6
		c-0.4,2.9-5.6-0.7-5,3.4c0.5,3.3,3.9,0.3,5.6,3.1c-2.8,0.5-6.6,1.6-7.4-0.5c-1.4-3.5-1.5-8.1,0.1-11.6
		C234.2,94,238.1,94.3,240.6,96.1z"/>
	<path fill-rule="evenodd" clip-rule="evenodd" fill="#101010" d="M248.9,108c1.4-4.6,2.9-9,5.6-13.5c2.5,4.6,4.1,8.9,5.5,13.5
		c-3.6,0.6-2.2-4.1-5.5-4.1C251.1,103.8,252.5,108.5,248.9,108z"/>
	<path fill-rule="evenodd" clip-rule="evenodd" fill="#2E2E2E" d="M283.5,96.3c4.3-2.2,7.5-1.2,11.1-0.6c-8,1.9-1.5,9.1-5.1,12.6
		C285.6,105.2,292.5,97.6,283.5,96.3z"/>
	<path fill-rule="evenodd" clip-rule="evenodd" fill="#101010" d="M301.3,94.8c3.9,0.8,3.6,3.7,5.4,5.1c2.3-0.6,1.5-4,4.5-4.7
		c-0.7,4.7-4.4,8.2-4,13.1C306.5,103.4,303.7,99.6,301.3,94.8z"/>
	<path fill-rule="evenodd" clip-rule="evenodd" fill="#020202" d="M269.8,94.4c1.7,1.9,1.1,3.2,1.2,4.5c0.2,3.9-2.1,9.5,7.3,7.4
		c-0.6,0.6-1.1,1.2-1.7,1.9c-1.8,0-3.7,0-5.5,0c-1,0-2.1,0-2-1.4C269.2,102.9,268.4,99,269.8,94.4z"/>
	<path fill-rule="evenodd" clip-rule="evenodd" fill="#FFFFFF" d="M64.8,5.5c18.3,0,36.7,0.1,55-0.1c3.5,0,4.4,1,4.3,4.4
		c-0.1,34.2-0.1,68.3,0,102.5c0,3.6-1.1,4.3-4.5,4.3c-36.7-0.1-73.3-0.1-110,0c-3.4,0-4.6-0.7-4.5-4.4C5.3,78,5.3,43.9,5.1,9.7
		c0-3.8,1.5-4.3,4.7-4.3C28.1,5.6,46.4,5.5,64.8,5.5z"/>
	<path fill-rule="evenodd" clip-rule="evenodd" fill="#FFFFFF" d="M267.1,44.1c0,18.3-11.9,28.9-28.9,25.9
		c-11.7-2-19.3-13-18.7-26.8c0.4-9.6,3.2-18.1,12.3-22.9C245.6,13.1,267.3,18.7,267.1,44.1z"/>
	<path fill-rule="evenodd" clip-rule="evenodd" fill="#FFFFFF" d="M217.9,97c1.3-0.1,2.2,0.4,2.3,1.9c0.1,1.5-0.6,2.1-2,2.1
		c-1.2,0-1.9-0.3-1.9-1.6C216.2,98.3,216,97,217.9,97z"/>
	<path fill-rule="evenodd" clip-rule="evenodd" fill="#FFFFFF" d="M254.2,102.1c-1-0.2-1-0.7-0.5-1.3c0.3-0.4,0.5-0.8,0.8-1.2
		c0.3,0.5,0.7,1,0.9,1.6C255.5,102.2,254.7,102.1,254.2,102.1z"/>
	<path fill-rule="evenodd" clip-rule="evenodd" fill="#010101" d="M85.2,60.5c0,8.3,0,16.7,0,25c0,7.3-3.5,12.4-9.7,14.7
		c-6.4,2.4-12.3,0.9-17.1-4.6c-1.3-1.5-2.6-2.2-4.4-2.9c-6.3-2.1-10-7.3-10.1-13.9c-0.1-6.3,0-12.7,0-19c0-1.3-0.2-2.9,1.4-3.4
		c1.2-0.4,2.2,0.5,3.1,1.2c2.6,2.1,5.2,4.2,7.9,6.1c1.9,1.4,2.1,3.2,2.1,5.3c0,5.5-0.1,11,0,16.5c0.1,5.2,1.4,5.9,6.1,3.5
		c5.3-2.7,6.6-7.5,6.5-13c-0.1-16.3,0-32.6,0-48.9c0-1.7-0.9-4,1.2-4.9c2-0.9,3.2,1.3,4.7,2.2c6.8,3.8,9.6,9.2,8.6,17.1
		C84.6,47.8,85.2,54.2,85.2,60.5z"/>
	<path fill-rule="evenodd" clip-rule="evenodd" fill="#FFFFFF" d="M74,26.9c5.6,3,8.4,6.4,8.2,12.9c-0.6,15.6-0.1,31.3-0.2,47
		c0,5.3-3.1,8.8-7.7,10.5c-4.7,1.8-9.1,0.8-13-3.6c11.2-3.1,13.2-11.2,12.9-21.2C73.7,57.6,74,42.6,74,26.9z"/>
	<path fill-rule="evenodd" clip-rule="evenodd" fill="#FFFFFF" d="M55,90c-12.8-7.4-6-19-8.4-28.7c6.9,2.8,9.3,7.1,8.5,13.8
		C54.6,79.6,55,84.3,55,90z"/>
</g>
</svg>
