<?xml version="1.0" encoding="UTF-8"?>
<!-- Generator: Adobe Illustrator 16.0.3, SVG Export Plug-In . SVG Version: 6.00 Build 0)  -->
<!DOCTYPE svg PUBLIC "-//W3C//DTD SVG 1.1//EN" "http://www.w3.org/Graphics/SVG/1.1/DTD/svg11.dtd">
<svg fill="#000000" version="1.1" id="Calque_3" xmlns="http://www.w3.org/2000/svg" xmlns:xlink="http://www.w3.org/1999/xlink" x="0px" y="0px" width="450px" height="240px" viewBox="0 0 450 240" enable-background="new 0 0 450 240" xml:space="preserve">
<g>
	<path fill-rule="evenodd" clip-rule="evenodd" d="M67.015,93.395c0.021-0.481,0.053-0.858,0.053-1.237   c0.004-7.561-0.015-15.125,0.025-22.688c0.006-0.951-0.293-1.474-1.094-1.982c-6.036-3.814-11.904-7.919-18.095-11.455   c-4.203-2.404-5.315-9.111-3.097-12.703c1.344-2.183,3.01-3.745,5.756-3.814c1.06-0.026,2.11-0.361,3.169-0.389   c0.773-0.023,1.668,0.015,2.313,0.377c6.386,3.6,12.746,7.24,19.068,10.95c1.14,0.669,1.967,0.731,3.126,0.028   c5.442-3.294,10.918-6.538,16.44-9.696c2.676-1.53,5.503-2.745,8.724-1.826c0.508,0.146,1.048,0.315,1.461,0.625   c3.084,2.29,5.647,6.483,4.399,10.737c-0.643,2.194-2.122,3.848-3.975,5.044c-5.918,3.821-11.894,7.548-17.872,11.271   c-0.736,0.459-1.106,0.912-1.118,1.827c-0.104,7.951-0.262,15.901-0.397,23.849c-0.002,0.134,0.076,0.271,0.169,0.593   c0.458-0.24,0.876-0.428,1.266-0.665c6.407-3.864,12.797-7.752,19.223-11.585c0.902-0.536,1.245-1.11,1.235-2.18   c-0.056-6.39-0.04-12.782-0.023-19.174c0.01-3.395,3.927-8.314,7.504-9.482c3.716-1.215,7.654,0.107,10.072,3.357   c1.347,1.811,1.657,3.919,1.671,6.069c0.044,6.587,0.042,13.174-0.004,19.76c-0.007,1.049,0.306,1.648,1.201,2.228   c5.964,3.848,11.923,7.705,17.792,11.696c2.273,1.543,4.191,3.535,5.056,6.289c1.368,4.354-1.625,9.45-6.228,10.215   c-2.329,0.388-4.746,0.287-7.124,0.299c-0.517,0.002-1.07-0.402-1.547-0.711c-5.419-3.517-10.836-7.038-16.227-10.595   c-0.909-0.602-1.604-0.688-2.619-0.107c-6.701,3.838-13.452,7.59-20.183,11.369c-0.416,0.232-0.822,0.48-1.4,0.824   c3.832,2.447,7.512,4.793,11.189,7.147c2.62,1.678,5.25,3.341,7.843,5.06c0.728,0.482,1.304,0.551,2.116,0.137   c6.137-3.14,12.309-6.202,18.453-9.322c3.344-1.702,6.772-2.147,10.427-1.141c4.488,1.24,6.958,5.688,5.987,10.204   c-0.882,4.094-3.15,6.593-6.937,8.221c-5.565,2.389-10.987,5.112-16.502,7.621c-0.958,0.437-1.245,0.96-1.239,1.97   c0.042,7.027,0.016,14.053,0.03,21.077c0.001,1.01,0.261,2.036,0.129,3.017c-0.351,2.582-3.807,5.979-7.478,6.154   c-1.547,0.074-3.141,0.191-4.646-0.083c-4.395-0.803-8.277-5.688-8.278-10.178c-0.001-6.343,0.02-12.685-0.041-19.026   c-0.007-0.622-0.354-1.497-0.834-1.816c-6.311-4.193-12.674-8.309-19.027-12.442c-0.113-0.074-0.25-0.113-0.505-0.225   c-0.032,0.488-0.081,0.898-0.081,1.311c-0.003,7.904,0.014,15.808-0.016,23.712c-0.002,0.883,0.247,1.406,1.025,1.874   c5.459,3.271,10.861,6.64,16.334,9.887c5.031,2.987,7.647,10.011,2.898,15.725c-2.361,2.84-5.316,3.313-8.601,3.242   c-0.434-0.01-0.883-0.353-1.286-0.604c-3.245-2.049-6.479-4.118-9.719-6.172c-0.273-0.173-0.573-0.302-1.086-0.571   c0,12.609,0,25.012,0,37.493c-6.651,0-13.115,0-19.752,0c0-12.461,0-24.868,0-37.595c-2.67,1.457-5.075,2.768-7.477,4.086   c-1.235,0.68-2.516,1.288-3.684,2.067c-3.444,2.301-6.65,1.223-9.776-0.639c-0.637-0.378-1.246-1.033-1.548-1.706   c-1.472-3.278-2.265-6.631-0.298-10.016c0.326-0.56,0.847-1.058,1.383-1.434c6.791-4.794,13.61-9.548,20.387-14.359   c0.468-0.331,0.935-1.052,0.939-1.593c0.063-7.951,0.046-15.905,0.044-23.856c0-0.239-0.061-0.479-0.117-0.888   c-0.439,0.188-0.824,0.317-1.176,0.505c-6.317,3.423-12.624,6.86-18.952,10.265c-0.824,0.443-1.14,0.97-1.133,1.938   c0.046,7.71,0.014,15.421,0.038,23.128c0.003,1.111-0.304,1.956-1.005,2.887c-2.316,3.071-5.45,4.42-9.12,4.809   c-2.351,0.249-7.762-2.74-8.728-4.875c-0.307-0.679-0.397-1.503-0.4-2.264c-0.028-7.514-0.049-15.028,0.017-22.541   c0.01-1.203-0.404-1.782-1.42-2.325c-6.074-3.251-12.045-6.702-18.19-9.811c-2.51-1.27-3.881-3.291-4.282-5.675   c-0.296-1.763,0.542-3.765,1.083-5.599c0.279-0.943,1.1-1.713,1.537-2.627c1.304-2.729,3.818-2.63,6.245-2.781   c3.4-0.217,6.145,1.344,8.89,3.093c4.509,2.864,9.109,5.585,13.664,8.381c0.688,0.422,1.258,0.691,2.105,0.198   c7.178-4.17,14.386-8.288,21.583-12.425c0.16-0.094,0.289-0.24,0.634-0.534c-1.16-0.696-2.217-1.332-3.274-1.962   c-5.625-3.367-11.263-6.709-16.861-10.121c-0.887-0.541-1.515-0.616-2.457-0.076c-5.685,3.269-11.442,6.407-17.123,9.682   c-3.233,1.863-6.764,1.461-10.231,1.625c-0.208,0.01-0.456-0.155-0.637-0.298c-4.335-3.423-7.197-8.503-4.735-14.44   c0.298-0.718,0.958-1.477,1.646-1.809c6.687-3.204,13.406-6.344,20.144-9.436c1.111-0.51,1.603-1.089,1.591-2.385   c-0.066-7.612-0.001-15.222-0.059-22.833c-0.013-1.603,0.39-2.995,1.385-4.181c2.591-3.093,5.978-4.731,9.929-3.893   c3.735,0.79,6.771,2.923,7.92,6.918c0.171,0.591,0.196,1.243,0.198,1.868c0.013,7.076-0.009,14.149,0.041,21.223   c0.003,0.567,0.31,1.42,0.739,1.654c6.916,3.738,13.873,7.399,20.824,11.07C66.576,93.285,66.758,93.313,67.015,93.395z"/>
	<path fill-rule="evenodd" clip-rule="evenodd" d="M203.186,128.084c0-0.725,0-1.35,0-1.802c3.439-0.92,6.788-1.806,10.127-2.716   c0.558-0.149,1.091-0.396,1.635-0.603c1.988-0.761,2.401-0.458,2.292,1.698c-0.133,2.676-0.386,5.35-0.396,8.027   c-0.019,6.386,0,12.776,0.143,19.16c0.095,4.34,2.963,6.979,7.61,7.08c2.983,0.066,5.788-0.704,8.138-2.657   c2.198-1.824,3.524-4.156,3.549-7.053c0.052-5.897,0.045-11.802,0.013-17.703c-0.013-2.326-0.941-3.199-3.3-3.277   c-1.164-0.041-2.33-0.009-3.616-0.009c0-0.799,0-1.45,0-2.077c3.101-0.659,6.265-1.298,9.407-2.029   c1.17-0.271,2.309-0.718,3.423-1.18c1.617-0.667,1.984-0.403,1.969,1.478c-0.104,10.383-0.193,20.769-0.285,31.149   c-0.004,0.293-0.03,0.59,0.006,0.878c0.4,3.148,0.64,3.748,3.805,3.995c1.647,0.129,3.301,0.281,4.949,0.271   c2.686-0.014,4.078-1.313,4.101-4.023c0.063-8.093,0.068-16.187-0.002-24.28c-0.03-2.974-1.121-3.878-4.453-4.143   c-0.772-0.063-1.552-0.01-2.483-0.01c-0.049-0.684-0.095-1.281-0.111-1.484c4.257-1.27,8.313-2.478,12.367-3.688   c1.163-0.348,1.72,0.053,1.727,1.286c0.013,2.388,0.003,4.771,0.003,7.56c0.855-0.912,1.466-1.607,2.12-2.256   c1.799-1.779,3.521-3.652,5.453-5.273c2.509-2.104,5.359-1.781,8.188-0.743c-0.26,3.482-0.51,6.862-0.766,10.3   c-1.051,0.338-1.81,0.133-2.375-1.02c-1.856-3.808-8.579-3.679-10.528,0.308c-0.912,1.865-1.63,4.006-1.719,6.055   c-0.239,5.355-0.099,10.73-0.063,16.095c0.008,0.912,0.165,1.844,0.394,2.73c0.422,1.642,1.655,2.511,3.614,2.595   c1.214,0.052,2.43,0.01,3.77,0.01c0,0.745,0,1.438,0,2.211c-11.617,0-23.257,0-35.014,0c0-2.185,0-4.362,0-6.91   c-0.646,0.443-1.069,0.684-1.434,0.994c-1.559,1.327-3.038,2.749-4.655,3.997c-3.577,2.754-7.675,3.605-12.102,3.039   c-0.768-0.098-1.532-0.23-2.288-0.399c-3.848-0.859-5.827-3.459-6.427-7.183c-0.267-1.67-0.31-3.388-0.321-5.084   c-0.039-5.513,0.002-11.025-0.026-16.537c-0.01-1.311-0.148-2.625-0.291-3.93c-0.167-1.489-1.189-2.159-2.545-2.386   C205.646,128.356,204.493,128.248,203.186,128.084z"/>
	<path fill-rule="evenodd" clip-rule="evenodd" d="M158.987,105.981c0-1.004,0-1.724,0-2.59c1.015,0,2.017,0.008,3.02,0   c7.796-0.055,15.589-0.135,23.384-0.16c3.948-0.012,7.877,0.247,11.542,1.923c3.883,1.782,5.691,4.974,5.967,9.115   c0.47,7.034-3.676,11.021-9.193,13.371c-1.237,0.525-2.516,0.958-4.031,1.529c1.865,0.3,3.502,0.474,5.094,0.836   c5.298,1.205,9.434,3.989,10.656,9.529c1.885,8.552-1.698,16.561-10.108,20.633c-4.036,1.951-8.314,2.917-12.789,2.887   c-4.58-0.03-9.16-0.222-13.742-0.259c-2.034-0.014-4.067,0.188-6.136,0.293c-0.289-1.08-0.188-1.728,0.899-2.281   c2.651-1.348,2.701-4.021,2.735-6.469c0.108-7.707,0.066-15.416,0.068-23.125c0.002-6.34-0.004-12.682-0.044-19.024   c-0.007-1.112-0.126-2.235-0.326-3.328c-0.362-1.977-1.431-2.766-3.768-2.872C161.201,105.942,160.186,105.981,158.987,105.981z    M174.305,159.16c3.953,0.794,7.772,1.063,11.596,0.381c4.789-0.852,8.534-3.194,10.226-7.996   c1.277-3.616,1.277-7.364,0.505-11.077c-0.857-4.115-3.345-6.754-7.462-7.871c-4.412-1.2-8.92-1.275-13.437-1.426   c-1.228-0.04-1.463,0.424-1.454,1.525c0.048,5.656,0.024,11.312,0.024,16.969C174.305,152.78,174.305,155.896,174.305,159.16z    M174.526,119.479c-0.076,0-0.152,0-0.226,0c0,2.336,0.093,4.682-0.036,7.013c-0.077,1.429,0.511,1.794,1.763,1.737   c2.624-0.119,5.266-0.042,7.865-0.338c2.589-0.296,5.196-0.861,7.25-2.661c3.436-3.014,3.774-6.984,3.036-11.104   c-0.753-4.191-2.973-6.197-7.1-6.979c-3.467-0.655-6.933-0.771-10.438-0.319c-1.968,0.252-2.076,0.186-2.099,2.135   C174.493,112.466,174.526,115.972,174.526,119.479z"/>
	<path fill-rule="evenodd" clip-rule="evenodd" d="M373.684,160.726c-0.917,0.823-1.79,1.681-2.743,2.428   c-0.31,0.244-0.908,0.389-1.236,0.251c-0.239-0.101-0.342-0.741-0.342-1.142c-0.004-0.92,0.137-1.842,0.137-2.764   c0.004-16.479,0-32.962-0.006-49.441c-0.002-3.262-0.587-3.878-3.872-4.045c-0.867-0.043-1.738-0.005-2.657-0.005   c0-0.835,0-1.502,0-1.877c4.338-1.191,8.564-2.346,12.785-3.521c1.033-0.288,1.34,0.246,1.345,1.108   c0.01,1.608-0.038,3.216-0.04,4.828c-0.004,7.984-0.002,15.973-0.002,24.043c0.199-0.15,0.5-0.336,0.754-0.568   c1.356-1.261,2.646-2.6,4.06-3.784c4.813-4.031,10.338-4.603,15.995-2.51c5.503,2.041,8.247,6.544,9.103,12.214   c0.895,5.915,0.215,11.598-3.488,16.48c-3.641,4.803-8.256,8.57-13.956,10.642c-5.162,1.876-10.221,1.136-14.918-1.771   C374.316,161.117,374.033,160.94,373.684,160.726z M376.803,145.262c0,1.948,0.249,3.935-0.055,5.836   c-0.51,3.209,1.092,4.893,3.622,6.309c7.515,4.212,16.15,1.768,18.785-7.257c1.151-3.942,1.247-7.965,0.452-11.952   c-2.229-11.215-12.629-12.439-18.756-7.74c-2.493,1.906-4.332,4.408-4.077,7.938C376.94,140.672,376.806,142.972,376.803,145.262z"/>
	<path fill-rule="evenodd" clip-rule="evenodd" d="M302.499,160.826c0,0.764,0,1.43,0,2.039c-6.828,0-13.574,0-20.43,0   c0-0.558,0-1.258,0-2.041c1.227-0.128,2.471-0.269,3.717-0.382c1.752-0.157,2.319-0.634,2.599-2.348   c0.155-0.955,0.29-1.927,0.294-2.891c0.023-7.463,0.015-14.924,0.006-22.387c0-0.534,0.006-1.08-0.092-1.602   c-0.487-2.607-0.879-2.937-3.543-3.011c-0.97-0.029-1.94-0.004-3.018-0.004c0-0.744,0-1.439,0-1.993   c4.604-1.196,9.154-2.379,13.814-3.589c0,2.588,0,4.99,0,7.659c2.045-1.726,4.016-3.278,5.856-4.973   c4.37-4.012,14.994-3.336,18.456,1.137c1.693,2.187,2.813,4.603,3.02,7.273c0.317,4.12,0.297,8.265,0.401,12.398   c0.089,3.604,0.126,7.211,0.245,10.816c0.087,2.548,0.843,3.267,3.424,3.519c0.862,0.086,1.718,0.241,2.642,0.375   c0,0.701,0,1.366,0,2.096c-4.685,0-9.365,0-13.971,0c0-8.865,0.236-17.737-0.082-26.589c-0.227-6.31-4.154-8.647-9.761-8.569   c-5.021,0.071-8.47,2.58-9.589,6.766c-0.298,1.113-0.427,2.302-0.437,3.455c-0.043,5.756-0.031,11.509-0.007,17.267   c0.003,0.919,0.134,1.841,0.239,2.759c0.206,1.829,0.717,2.281,2.595,2.438C300.038,160.545,301.193,160.687,302.499,160.826z"/>
	<path fill-rule="evenodd" clip-rule="evenodd" d="M406.822,178.71c1.632,0.486,3.225,1.061,4.858,1.427   c2.86,0.64,5.144-0.463,6.949-2.654c2.924-3.549,4.448-7.818,6.107-12.011c0.184-0.461,0.02-1.159-0.188-1.661   c-4.248-10.354-8.495-20.706-12.822-31.025c-0.738-1.764-1.711-3.464-2.816-5.021c-0.507-0.72-1.572-1.393-2.427-1.447   c-1.904-0.123-2.147-1.044-1.75-2.617c6.427,0,12.874,0,19.408,0c0,0.674,0,1.377,0,2.105c-1.372,0.215-2.74,0.291-4.026,0.658   c-1.8,0.517-2.115,1.026-1.478,2.772c1.697,4.637,3.513,9.23,5.313,13.826c1.52,3.878,3.086,7.737,4.634,11.604   c0.084,0.213,0.193,0.419,0.423,0.909c1.055-2.576,2.015-4.908,2.967-7.243c2.362-5.781,4.723-11.567,7.077-17.352   c0.183-0.45,0.323-0.915,0.47-1.378c0.633-2.021-0.151-3.221-2.246-3.42c-0.969-0.091-1.939-0.152-2.998-0.233   c0-0.77,0-1.479,0-2.247c5.063,0,10.143,0,15.336,0c0,0.659,0,1.413,0,2.264c-4.071,0.887-5.729,4.143-7.269,7.583   c-5.936,13.272-11.825,26.563-17.931,39.755c-1.941,4.194-4.617,8.004-8.332,10.952c-3.078,2.438-6.48,2.604-10.061,1.571   c-0.341-0.101-0.814-0.788-0.745-1.098C405.729,182.668,406.311,180.636,406.822,178.71z"/>
	<path fill-rule="evenodd" clip-rule="evenodd" d="M336.562,134.052c-2.411-0.629-2.226-0.627-2.204-3.026   c0.023-2.525,1.138-3.926,3.292-5.136c4.073-2.289,8.226-3.95,12.985-3.508c7.317,0.685,11.042,3.686,11.472,11.14   c0.409,7.099,0.257,14.228,0.35,21.344c0.005,0.392,0,0.779,0.003,1.169c0.016,3.289,0.56,3.939,3.785,4.504   c0.614,0.106,1.234,0.189,1.912,0.295c0.034,0.316,0.095,0.6,0.097,0.881c0.002,0.384-0.035,0.769-0.061,1.203   c-4.059,0-8.062,0-12.28,0c0-2.205,0-4.461,0-7.014c-2.769,2.068-5.239,3.941-7.736,5.773c-3.33,2.438-7.055,2.944-10.924,1.782   c-3.489-1.051-5.245-3.773-5.701-7.231c-0.521-3.947-0.259-7.841,2.669-10.955c2.252-2.398,5.179-3.863,8.282-4.664   c4.021-1.037,8.147-1.666,12.239-2.393c0.734-0.13,0.966-0.328,1.007-1.067c0.328-6.102-3.677-10.39-9.759-10.383   c-0.973,0-1.951-0.004-2.918,0.1c-3.604,0.393-5.448,2.609-6.118,6.015C336.88,133.254,336.714,133.608,336.562,134.052z    M355.73,140.252c-4.042,1.091-7.879,1.902-11.558,3.172c-4.507,1.557-6.123,4.408-6.051,9.149c0.07,4.884,3.816,6.789,7.906,6.268   c4.179-0.533,6.871-3.365,9.406-6.375c0.17-0.202,0.282-0.522,0.284-0.79C355.736,148.024,355.73,144.374,355.73,140.252z"/>
	<path fill-rule="evenodd" clip-rule="evenodd" d="M139.28,82.793c-1.288-0.376-2.604-0.676-3.857-1.146   c-1.629-0.61-3.225-1.315-4.795-2.063c-0.375-0.178-0.85-0.707-0.835-1.055c0.1-2.276,0.227-4.561,0.523-6.816   c0.579-4.396,4.499-7.729,9.004-7.787c4.285-0.055,8.179,3.208,9.175,7.313C149.817,76.689,145.628,82.521,139.28,82.793z"/>
	<path fill-rule="evenodd" clip-rule="evenodd" d="M12.621,156.42c-4.842-0.186-8.828-4.386-8.63-9.53   c0.206-5.396,4.457-9.357,9.783-8.9c2.34,0.204,4.598,1.354,6.89,2.083c0.506,0.159,1.026,0.31,1.491,0.553   c0.258,0.135,0.608,0.469,0.598,0.695c-0.137,2.809-0.002,5.687-0.589,8.406C21.248,153.969,16.887,156.804,12.621,156.42z"/>
	<path fill-rule="evenodd" clip-rule="evenodd" d="M76.908,27.22c4.177,0,7.694,2.542,8.901,6.432   c1.254,4.041-0.131,8.087-3.639,10.493c-1.481,1.02-2.998,1.983-4.528,2.926c-0.267,0.162-0.78,0.257-1.003,0.115   c-2.115-1.368-4.37-2.588-6.236-4.246c-2.852-2.53-3.493-6.499-2.034-10.023C69.831,29.393,73.087,27.22,76.908,27.22z"/>
	<path fill-rule="evenodd" clip-rule="evenodd" d="M22.019,80.991c-2.669,0.558-5.155,1.18-7.678,1.58   c-5.18,0.822-9.47-2.999-10.207-7.567c-0.633-3.94,0.727-7.145,4.101-9.241c3.271-2.03,6.753-2.063,10.032,0.048   c3.397,2.192,4.649,5.445,4.225,9.42C22.293,77.113,22.18,79,22.019,80.991z"/>
	<path fill-rule="evenodd" clip-rule="evenodd" d="M139.764,138.126c3.928-0.155,7.939,3.111,8.651,7.616   c0.776,4.91-2.222,9.498-6.929,10.485c-6.152,1.292-10.982-2.864-11.444-8.765c-0.144-1.842-0.056-3.705-0.014-5.555   c0.008-0.364,0.212-0.966,0.457-1.045C133.417,139.938,136.074,138.104,139.764,138.126z"/>
	<path fill-rule="evenodd" clip-rule="evenodd" d="M237.405,65.978c-0.372,2.344-0.684,4.498-1.084,6.633   c-0.068,0.369-0.511,0.667-0.778,0.998c-0.12-0.079-0.241-0.16-0.36-0.238c-0.019-0.283-0.095-0.579-0.055-0.855   c0.394-2.623-1.054-3.991-3.217-5.041c-5.34-2.595-12.032-2.006-16.022,1.561c-2.304,2.061-3.576,4.724-4,7.735   c-0.691,4.913-0.413,9.714,2.451,14.004c2.933,4.397,7.055,6.604,12.377,6.764c3.808,0.115,7.298-0.731,10.563-2.762   c0.068,1.587-0.793,2.904-2.271,3.543c-3.596,1.546-7.362,2.046-11.247,1.813c-5.869-0.348-10.694-2.721-14.144-7.538   c-2.19-3.059-2.899-6.606-2.965-10.327c-0.083-4.79,1.042-9.142,4.367-12.744c2.421-2.623,5.461-4.149,8.913-4.884   C225.873,63.374,231.677,63.934,237.405,65.978z"/>
	<path fill-rule="evenodd" clip-rule="evenodd" d="M287.611,77.778c0.037-0.494,0.066-0.862,0.095-1.255c2.949,0,5.812,0,8.757,0   c0.237,0.686,0.267,1.144-0.719,1.534c-1.844,0.734-2.654,2.463-3.418,4.169c-3.461,7.741-6.849,15.515-10.459,23.185   c-0.954,2.021-2.486,3.814-3.958,5.544c-1.479,1.736-3.533,2.315-5.81,2.05c-0.978-0.111-1.547-0.46-1.183-1.588   c0.28-0.866,0.472-1.764,0.756-2.858c0.495,0.204,0.911,0.371,1.326,0.548c2.373,1.007,4.199,0.739,5.611-1.431   c1.386-2.129,2.33-4.55,3.402-6.873c0.146-0.311-0.023-0.837-0.176-1.211c-2.568-6.275-5.166-12.539-7.733-18.813   c-0.584-1.429-1.453-2.475-3-2.939c-0.319-0.093-0.479-0.729-0.837-1.322c3.999,0,7.588,0,11.306,0   c0.026,0.376,0.055,0.779,0.091,1.274c-0.527,0.034-0.951,0.069-1.378,0.081c-1.724,0.057-2.317,0.714-1.714,2.306   c1.871,4.917,3.856,9.794,5.962,15.106c0.813-1.951,1.46-3.484,2.088-5.023c1.24-3.05,2.444-6.114,3.711-9.154   c0.977-2.344,0.541-3.102-1.97-3.235C288.173,77.861,287.984,77.826,287.611,77.778z"/>
	<path fill-rule="evenodd" clip-rule="evenodd" d="M321.733,75.729c6.957,0.064,11.023,4.339,11.194,11.372   c0.157,6.355-3.89,11.735-9.599,12.817c-7.256,1.377-12.925-2.136-13.898-9.454c-0.665-4.979,0.412-9.262,4.493-12.479   C315.872,76.449,318.627,75.7,321.733,75.729z M328.771,89.116c-0.325-3.555-0.861-6.913-3.183-9.727   c-2.467-2.985-7.718-2.694-10.095,0.343c-2.971,3.795-1.917,12.917,0.774,16.265c2.758,3.426,9.612,3.514,11.28-1.401   C328.146,92.835,328.373,90.948,328.771,89.116z"/>
	<path fill-rule="evenodd" clip-rule="evenodd" d="M348.831,98.594c-0.345,0.248-0.687,0.705-1.037,0.709   c-3.606,0.053-7.216,0.053-10.823-0.004c-0.331-0.005-0.651-0.491-0.978-0.755c0.082-0.135,0.164-0.268,0.246-0.4   c0.329-0.021,0.659-0.035,0.986-0.06c1.826-0.131,2.63-0.782,2.657-2.614c0.073-5.112,0.025-10.228,0.025-15.49   c-1.269,0-2.463,0-3.978,0c0.291-0.474,0.375-0.8,0.576-0.908c0.467-0.252,0.983-0.408,1.486-0.582   c1.376-0.472,2.046-1.261,1.97-2.875c-0.244-5.144,2.666-8.627,6.44-11.581c0.15-0.12,0.346-0.177,0.517-0.272   c1.302-0.714,2.816-1.058,4.001-0.276c0.531,0.353,0.319,1.858,0.402,2.842c0.03,0.365-0.057,0.741-0.081,0.984   c-1.219-0.3-2.333-0.752-3.472-0.816c-2.261-0.132-3.577,0.952-3.705,3.166c-0.148,2.664-0.035,5.342-0.035,8.208   c2.247-0.116,4.363-0.229,6.601-0.345c0,0.783,0,1.481,0,2.339c-2.045,0-4.118,0-6.141,0c-0.139,0.268-0.263,0.389-0.263,0.512   c-0.007,4.877-0.057,9.752,0.027,14.629c0.041,2.376,0.571,2.808,2.944,3.061c0.428,0.048,0.864,0.01,1.3,0.01   C348.609,98.245,348.721,98.42,348.831,98.594z"/>
	<path fill-rule="evenodd" clip-rule="evenodd" d="M257.952,79.896c-1.289,0-2.354,0-3.419,0c-0.053-0.095-0.107-0.19-0.162-0.286   c0.229-0.19,0.429-0.45,0.693-0.56c3.214-1.327,3.216-1.322,3.186-4.791c-0.004-0.438-0.039-0.882-0.012-1.315   c0.066-0.996-0.215-2.401,0.323-2.895c1.009-0.921,2.499-1.313,3.915-1.989c0,3.396,0,6.521,0,9.654c2.072,0,4.136,0,6.256,0   c0,0.674,0,1.339,0,2.167c-2.11,0-4.178,0-6.417,0c0,3.946-0.021,7.734,0.012,11.517c0.009,1.158,0.022,2.348,0.271,3.469   c0.382,1.714,1.272,2.315,3.009,2.332c1.111,0.013,2.22,0.002,3.391,0.002c-2.163,2.917-5.887,3.556-8.721,2.226   c-1.386-0.647-1.95-1.91-2.013-3.312c-0.164-3.645-0.229-7.295-0.305-10.944C257.923,83.477,257.952,81.778,257.952,79.896z"/>
	<path fill-rule="evenodd" clip-rule="evenodd" d="M252.522,98.602c-0.348,0.244-0.69,0.699-1.044,0.707   c-3.406,0.057-6.816,0.052-10.224,0.009c-0.288-0.003-0.571-0.419-0.854-0.646c0.313-0.195,0.614-0.532,0.943-0.563   c2.392-0.212,2.865-0.617,2.888-3.037c0.039-4.286,0.027-8.572-0.025-12.855c-0.029-2.501-0.373-2.788-2.889-2.904   c-0.238-0.012-0.477-0.045-0.767-0.079c-0.334-0.916-0.164-1.42,0.874-1.648c1.83-0.403,3.655-0.858,5.447-1.413   c1.523-0.47,1.702-0.422,1.702,1.148c0.007,5.601,0,11.199,0,16.803c0,3.679,0,3.679,3.619,4.06   C252.303,98.322,252.413,98.46,252.522,98.602z"/>
	<path fill-rule="evenodd" clip-rule="evenodd" d="M248.682,67.679c0.028,1.396-1.198,2.739-2.57,2.816   c-1.288,0.071-2.747-1.301-2.795-2.626c-0.055-1.501,1.182-2.828,2.664-2.866C247.302,64.97,248.653,66.309,248.682,67.679z"/>
</g>
</svg>