<svg id="Layer_2" data-name="Layer 2" xmlns="http://www.w3.org/2000/svg" viewBox="0 0 111.32 44.1"><defs><style>.cls-1{fill:#000000;}</style></defs><title>Artboard 1</title><path class="cls-1" d="M15.72,30.78c-.19-3.72-.62-11.68-1-16.63C14.52,8.3,2.26,2.53,2.26,2.53L2.92,4.1l.41,5.35L2.1,9.95,1.78,33.86a14.5,14.5,0,0,1,8.74-3.19,34.91,34.91,0,0,1,5.2.11"/><path class="cls-1" d="M22.81,17.44c-3.59.32-6.31.32-7-.7l.76,14.14a26.76,26.76,0,0,1,7.5,2Z"/><path class="cls-1" d="M4.73,33.13c-2,1.16-3.16,2.66-3.37,3.82-.16.83,1.07,1.85,1.77,2.36a69.76,69.76,0,0,1,7.12-2.36c-3-2.71-4.78-3.56-5.52-3.82"/><path class="cls-1" d="M19.44,35.28a25,25,0,0,0-4.91-3.83,18,18,0,0,0-8.48,1,23.83,23.83,0,0,1,5.45,4.13,51.19,51.19,0,0,1,7.94-1.35"/><path class="cls-1" d="M27.72,35.5a41.9,41.9,0,0,0-10.64-3.69,36,36,0,0,1,3.82,3.38,33.56,33.56,0,0,1,6.82.32"/><path class="cls-1" d="M30.23,18.55c0-2,1.83-2.59,3.38-2.59a8.48,8.48,0,0,1,3.63.81l.39-2.57a12.85,12.85,0,0,0-4.13-.7c-3.49,0-6.21,1.84-6.21,5.3,0,6.05,8.32,4.85,8.32,9.2,0,2.29-2.22,3.18-3.8,3.18a17,17,0,0,1-4.68-1.1l.23,2.74a18,18,0,0,0,4.11.81c3.88,0,7.07-1.64,7.07-5.8,0-6.41-8.32-5.55-8.32-9.29"/><path class="cls-1" d="M57.85,27.56v5.83H55.31V17h4.34c3.51,0,6.88,1.17,6.88,5.1a5.22,5.22,0,0,1-3.66,5,29.06,29.06,0,0,1-5,.45m0-2.07H60a3.63,3.63,0,0,0,3.84-3.38A3.25,3.25,0,0,0,60.29,19H57.85Z"/><polygon class="cls-1" points="82.86 16.97 92.79 16.97 92.79 19.04 85.4 19.04 85.4 24.16 92.13 24.16 92.13 26.55 85.4 26.55 85.4 31.31 92.79 31.31 92.79 33.38 82.86 33.38 82.86 16.97"/><polygon class="cls-1" points="100.55 27.82 94.24 16.97 97.22 16.97 101.87 25.63 106.4 16.97 109.37 16.97 103.09 27.82 103.09 33.38 100.55 33.38 100.55 27.82"/><path class="cls-1" d="M67.39,31.31c-.93-.57-2.17-1.54-4.33-4.54l-2.68.41s3.48,5.6,6.55,6.86Z"/><path class="cls-1" d="M71.67,27.56v5.83H69.12V17h4.34c3.51,0,6.89,1.17,6.89,5.1a5.22,5.22,0,0,1-3.66,5,29,29,0,0,1-5,.45m0-2.07h2.16a3.63,3.63,0,0,0,3.84-3.38A3.25,3.25,0,0,0,74.1,19H71.67Z"/><path class="cls-1" d="M81.2,31.31c-.93-.57-2.17-1.54-4.33-4.54l-2.68.41s3.48,5.6,6.55,6.86Z"/><path class="cls-1" d="M52.55,26.61c0,4.52-2.27,6.95-6.2,6.95s-6.2-2.42-6.2-6.95V17.17h2.29v9.14c0,3.09,1,5.21,3.91,5.21s3.91-2.12,3.91-5.21V17.17h2.29Z"/><path class="cls-1" d="M43.72,11.57A1.79,1.79,0,0,0,42.44,11a1.73,1.73,0,0,0,0,3.45,1.83,1.83,0,0,0,1.26-.55v.58a2.16,2.16,0,0,1-3.42-1.73,2.18,2.18,0,0,1,2.17-2.17,2,2,0,0,1,1.25.41Z"/><rect class="cls-1" x="45.62" y="10.66" width="0.46" height="4.17"/><polygon class="cls-1" points="49.14 14.83 48.68 14.83 48.68 11.09 47.67 11.09 47.67 10.66 50.16 10.66 50.16 11.09 49.14 11.09 49.14 14.83"/><polygon class="cls-1" points="51.37 10.66 51.9 10.66 52.97 12.52 54.03 10.66 54.57 10.66 53.2 13.04 53.2 14.83 52.73 14.83 52.73 13.04 51.37 10.66"/><path class="cls-1" d="M62.67,12.75a2.17,2.17,0,1,1-2.17-2.16,2.16,2.16,0,0,1,2.17,2.16m-3.88,0A1.71,1.71,0,1,0,60.49,11a1.72,1.72,0,0,0-1.71,1.73"/><polygon class="cls-1" points="64.87 11.09 64.87 12.33 66.26 12.33 66.26 12.76 64.87 12.76 64.87 14.83 64.4 14.83 64.4 10.66 66.3 10.66 66.3 11.09 64.87 11.09"/><polygon class="cls-1" points="53.05 42.43 52.44 42.43 52.44 39.44 52.07 39.44 52.07 38.88 52.44 38.88 52.44 37.61 53.05 37.61 53.05 38.88 53.69 38.88 53.69 39.44 53.05 39.44 53.05 42.43"/><path class="cls-1" d="M54.65,36.2v3.1h0a1.2,1.2,0,0,1,1-.53c1,0,1.22.71,1.22,1.54v2.11h-.61v-2c0-.57,0-1.09-.75-1.09s-.89.77-.89,1.4v1.68H54V36.2Z"/><path class="cls-1" d="M58.17,40.79A1.15,1.15,0,0,0,59.34,42a1.22,1.22,0,0,0,1.09-.73l.52.29a1.8,1.8,0,0,1-1.65,1,1.72,1.72,0,0,1-1.75-1.83,1.73,1.73,0,1,1,3.42.08Zm2.16-.51a1.09,1.09,0,0,0-1-.93,1.13,1.13,0,0,0-1.09.93Z"/><path class="cls-1" d="M63.85,42.43h-.61v-3h-.33v-.56h.33V37.47a1.82,1.82,0,0,1,.16-.92,1,1,0,0,1,.92-.45,1.45,1.45,0,0,1,.43.08v.61a1.24,1.24,0,0,0-.41-.08c-.49,0-.49.35-.49,1v1.2h.9v.56h-.9Z"/><path class="cls-1" d="M65.65,40.86c0,.6.07,1.11.81,1.11s.8-.51.8-1.11v-2h.61v2c0,.94-.36,1.6-1.41,1.6S65,41.88,65,40.93v-2h.61Z"/><polygon class="cls-1" points="69.42 42.43 68.81 42.43 68.81 39.44 68.44 39.44 68.44 38.88 68.81 38.88 68.81 37.61 69.42 37.61 69.42 38.88 70.06 38.88 70.06 39.44 69.42 39.44 69.42 42.43"/><path class="cls-1" d="M71,40.86c0,.6.07,1.11.81,1.11s.8-.51.8-1.11v-2h.61v2c0,.94-.36,1.6-1.41,1.6s-1.41-.66-1.41-1.6v-2H71Z"/><path class="cls-1" d="M74.69,39.27h0a.92.92,0,0,1,.79-.48A1.08,1.08,0,0,1,76,39l-.29.55a.59.59,0,0,0-.36-.16c-.67,0-.7.85-.7,1.31v1.77h-.61V38.89h.61Z"/><path class="cls-1" d="M76.77,40.79A1.15,1.15,0,0,0,77.94,42,1.22,1.22,0,0,0,79,41.24l.52.29a1.8,1.8,0,0,1-1.65,1,1.72,1.72,0,0,1-1.75-1.83,1.73,1.73,0,1,1,3.42.08Zm2.16-.51a1.09,1.09,0,0,0-1-.93,1.13,1.13,0,0,0-1.09.93Z"/><rect class="cls-1" x="81.78" y="36.2" width="0.61" height="6.23"/><path class="cls-1" d="M84.18,37.55a.43.43,0,1,1-.43-.43.44.44,0,0,1,.43.43m-.13,4.89h-.61V38.89h.61Z"/><polygon class="cls-1" points="86.31 41.27 87.38 38.88 88.06 38.88 86.31 42.67 84.56 38.88 85.25 38.88 86.31 41.27"/><path class="cls-1" d="M88.76,40.79A1.15,1.15,0,0,0,89.93,42,1.22,1.22,0,0,0,91,41.24l.52.29a1.8,1.8,0,0,1-1.65,1,1.72,1.72,0,0,1-1.75-1.83,1.73,1.73,0,1,1,3.42.08Zm2.16-.51a1.09,1.09,0,0,0-1-.93,1.13,1.13,0,0,0-1.09.93Z"/><path class="cls-1" d="M93.65,39.71a.57.57,0,0,0-.49-.36.43.43,0,0,0-.44.39c0,.32.41.45.83.62a1.08,1.08,0,0,1,.83,1,1.16,1.16,0,0,1-1.21,1.15,1.28,1.28,0,0,1-1.26-.9l.54-.23c.15.33.33.57.73.57a.54.54,0,0,0,.58-.54c0-.79-1.61-.52-1.61-1.64a1,1,0,0,1,1.06-1,1.08,1.08,0,0,1,.95.66Z"/><path class="cls-1" d="M97.23,36.2v3.1h0a1.2,1.2,0,0,1,1-.53c1,0,1.22.71,1.22,1.54v2.11h-.61v-2c0-.57,0-1.09-.75-1.09s-.89.77-.89,1.4v1.68h-.61V36.2Z"/><path class="cls-1" d="M100.75,40.79A1.15,1.15,0,0,0,101.92,42a1.22,1.22,0,0,0,1.09-.73l.52.29a1.8,1.8,0,0,1-1.65,1,1.72,1.72,0,0,1-1.75-1.83,1.73,1.73,0,1,1,3.42.08Zm2.16-.51a1.09,1.09,0,0,0-1-.93,1.13,1.13,0,0,0-1.09.93Z"/><path class="cls-1" d="M104.77,39.27h0a.92.92,0,0,1,.79-.48,1.09,1.09,0,0,1,.55.17l-.29.55a.59.59,0,0,0-.36-.16c-.67,0-.7.85-.7,1.31v1.77h-.61V38.89h.61Z"/><path class="cls-1" d="M106.85,40.79A1.15,1.15,0,0,0,108,42a1.22,1.22,0,0,0,1.09-.73l.52.29a1.8,1.8,0,0,1-1.65,1,1.72,1.72,0,0,1-1.75-1.83,1.73,1.73,0,1,1,3.42.08Zm2.16-.51a1.09,1.09,0,0,0-1-.93,1.13,1.13,0,0,0-1.09.93Z"/><path class="cls-1" d="M111.32,42.1a.43.43,0,1,1-.85,0,.43.43,0,0,1,.85,0"/></svg>