<?xml version="1.0" encoding="UTF-8"?>
<!-- Generator: Adobe Illustrator 16.0.3, SVG Export Plug-In . SVG Version: 6.00 Build 0)  -->
<!DOCTYPE svg PUBLIC "-//W3C//DTD SVG 1.1//EN" "http://www.w3.org/Graphics/SVG/1.1/DTD/svg11.dtd">
<svg version="1.1" id="Calque_3" xmlns="http://www.w3.org/2000/svg" xmlns:xlink="http://www.w3.org/1999/xlink" x="0px" y="0px" width="450px" height="240px" viewBox="0 0 450 240" enable-background="new 0 0 450 240" xml:space="preserve" fill="black">
<g>
	<path fill-rule="evenodd" clip-rule="evenodd" d="M422.288,124.466c0.271,0.67,0.747,1.332,0.773,2.013   c0.156,3.905,0.315,7.821,0.234,11.729c-0.032,1.406-0.356,3.084-1.176,4.154c-5.793,7.557-12.154,14.6-20.864,18.876   c-4.066,1.998-8.573,2.4-12.91,0.729c-3.59-1.384-5.856-4.37-7.738-7.605c-3.367-5.78-3.543-12.107-2.944-18.499   c0.308-3.266,1.026-6.491,1.48-9.744c0.139-0.991,0.022-2.016,0.022-3.026c-0.162-0.048-0.324-0.096-0.486-0.146   c-0.475,0.657-1.029,1.272-1.416,1.982c-5.924,10.899-10.554,22.329-13.904,34.273c-0.503,1.798-0.82,3.648-1.23,5.471   c-1.28,5.665-5.995,7.466-10.851,4.267c-1.878-1.235-3.935-2.228-5.983-3.174c-1.448-0.668-2.559-1.509-2.704-3.173   c-0.232-2.644-0.41-5.293-0.563-7.943c-0.068-1.159-0.012-2.326-0.012-3.849c-3.098,1.622-5.996,2.618-9.199,2.423   c-3.226-0.196-5.679-2.078-8.465-3.878c-0.604,1.241-1.192,2.317-1.663,3.441c-2.349,5.598-6.28,9.796-11.46,12.836   c-3.54,2.074-7.555,2.238-11.51,2.587c-6.387,0.561-10.842-2.509-14.204-7.573c-1.43-2.151-2.741-4.379-4.251-6.805   c-1.004,1.246-1.902,2.381-2.824,3.499c-3.749,4.535-7.818,8.727-13.281,11.196c-3.87,1.748-7.949,3.155-12.187,1.679   c-7.452-2.598-12.932-7.384-15.427-15.125c-0.104-0.321-0.156-0.668-0.3-0.971c-0.574-1.213-1.158-1.268-2.133-0.192   c-2.099,2.307-4.018,4.809-6.318,6.891c-2.592,2.339-5.294,4.736-8.347,6.349c-9.847,5.196-15.317,2.817-22.222-2.979   c-2.908-2.441-4.99-5.533-6.103-9.239c-0.605-2.016-0.947-2.01-2.585-0.57c-3.825,3.362-7.52,6.911-11.611,9.918   c-3.001,2.207-6.647,3.255-10.477,1.964c-2.851-0.962-4.642-3.197-6.122-5.648c-1.288-2.131-2.381-4.379-3.565-6.573   c-0.234-0.435-0.493-0.856-0.991-1.718c-0.857,1.186-1.549,2.087-2.184,3.028c-2.31,3.417-4.493,6.928-6.951,10.237   c-1.02,1.372-2.576,2.368-3.948,3.456c-7.015,5.569-18.51,1.982-22.012-6.265c-2.333-5.495-3.363-11.21-3.026-17.086   c0.44-7.691,1.425-15.354,1.907-23.046c0.461-7.351,0.575-14.723,0.844-22.087c0.098-2.663,0.147-5.332,0.319-7.99   c0.181-2.799,3.511-5.53,6.306-5.239c0.844,0.087,1.679,0.276,2.515,0.437c3.001,0.574,6,1.161,9,1.739   c0.446,0.086,0.913,0.101,1.337,0.243c3.411,1.141,5.218,1.172,4.123,6.565c-2.118,10.433-3.841,20.953-5.432,31.482   c-0.734,4.86-1.065,9.829-1.027,14.744c0.027,3.347,0.894,6.713,1.624,10.018c0.306,1.382,0.965,2.97,2.642,3.275   c1.738,0.319,2.591-1.188,3.496-2.294c2.91-3.552,4.255-7.831,5.402-12.172c1.888-7.151,2.896-14.442,3.415-21.813   c0.386-5.486,0.879-10.966,1.219-16.455c0.129-2.089-0.046-4.195-0.064-6.291c-0.035-3.971,1.801-5.667,5.698-5.22   c1.858,0.212,3.698,0.609,5.559,0.754c1.968,0.153,3.957,0.223,5.925,0.123c3.411-0.173,5.728,1.848,5.699,5.316   c-0.013,1.46-0.214,2.953-0.573,4.369c-2.907,11.445-5.304,22.979-5.985,34.797c-0.21,3.652,0.299,7.256,1.82,10.625   c1.604,3.553,5.55,4.435,8.677,1.985c2.887-2.259,4.585-5.403,6.367-8.514c1.465-2.56,1.707-5.312,1.986-8.151   c0.702-7.048,1.566-14.082,2.414-21.117c0.224-1.85,0.016-2.196-1.87-2.289c-0.51-0.025-1.021-0.041-1.53-0.054   c-3.217-0.087-3.583-0.447-3.783-3.64c-0.149-2.38,0.539-4.569,1.331-6.775c0.701-1.949,1.302-3.957,1.685-5.988   c0.406-2.167,1.051-2.87,3.243-2.776c0.339,0.013,0.679,0.048,1.019,0.052c2.455,0.025,2.958-0.283,3.21-2.671   c0.77-7.273,1.438-14.556,2.147-21.834c0.171-1.748,0.4-3.492,0.53-5.243c0.174-2.344,1.46-3.899,3.465-4.88   c3.435-1.682,7.011-2.658,10.857-1.623c2.625,0.706,5.262,1.39,7.837,2.255c2.083,0.696,2.699,1.825,2.121,3.926   c-1.065,3.875-2.295,7.704-3.459,11.55c-1.666,5.507-2.632,11.137-2.961,16.878c-0.091,1.577,0.441,2.172,2.038,2.222   c2.042,0.064,4.085,0.059,6.124,0.16c0.841,0.042,1.699,0.196,2.499,0.456c1.773,0.583,2.292,1.693,1.638,3.446   c-0.534,1.431-1.148,2.835-1.733,4.249c-0.636,1.536-0.845,3-0.507,4.751c0.313,1.64-0.071,3.52-0.58,5.16   c-0.231,0.744-1.451,1.537-2.314,1.662c-2.058,0.294-4.169,0.266-6.262,0.256c-3.64-0.018-3.74-0.065-4.211,3.529   c-0.783,5.958-1.47,11.928-2.099,17.904c-0.293,2.813-0.563,5.658-0.475,8.478c0.145,4.69,1.738,8.884,5.268,12.144   c1.844,1.7,3.609,1.811,5.729,0.504c6.079-3.745,10.418-9.015,13.393-15.445c0.318-0.687,0.287-1.541,0.391-2.32   c0.984-7.474,1.973-14.945,2.939-22.419c0.266-2.062,0.222-2.087-1.769-2.377c-2.733-0.399-3.575-1.369-3.226-4.117   c0.197-1.561,0.793-3.065,1.069-4.622c0.191-1.095,0.358-2.271,0.161-3.341c-0.43-2.339,0.11-4.511,0.762-6.689   c0.304-1.003,1.071-1.35,2.088-1.405c4.103-0.229,4.145-0.24,4.68-4.308c1.01-7.644,1.956-15.295,2.948-22.942   c0.23-1.776,0.095-3.717,1.668-5.018c2.057-1.701,4.459-2.765,7.1-3.023c4.708-0.458,9.083,1.064,13.396,2.669   c1.774,0.661,2.433,2.152,1.804,4.028c-1.045,3.111-2.455,6.109-3.379,9.252c-1.706,5.801-3.796,11.534-4.126,17.656   c-0.117,2.176,0.145,2.355,2.397,2.489c2.489,0.151,4.977,0.328,7.467,0.491c0.282,0.02,0.566,0.027,0.849,0.069   c3.547,0.532,4.464,2.438,2.271,5.218c-1.377,1.749-1.848,3.475-1.564,5.645c0.225,1.724,0.172,3.515-0.014,5.249   c-0.093,0.886-0.661,1.773-1.174,2.556c-0.881,1.351-2.118,1.858-3.801,1.591c-1.952-0.31-3.945-0.389-5.925-0.504   c-1.416-0.083-2.169,0.655-2.429,2.061c-1.628,8.763-2.799,17.581-2.935,26.504c-0.075,4.866,1.82,9.06,4.862,12.756   c1.274,1.55,2.385,1.864,4.222,1.085c5.081-2.151,8.679-5.911,11.048-10.812c0.691-1.431,1.104-3.087,1.248-4.675   c0.665-7.392,0.986-14.822,1.821-22.195c0.913-8.076,3.242-15.859,5.765-23.568c0.422-1.291,0.869-2.575,1.368-3.835   c0.854-2.156,2.667-3.036,5.006-2.853c2.002,0.157,4.045,0.132,6.044-0.076c1.944-0.203,3.373,0.768,4.877,1.644   c0.769,0.446,1.461,1.025,2.254,1.592c0.81-1.578,1.523-3.029,2.29-4.45c0.745-1.379,1.967-2.138,3.504-1.941   c3.646,0.472,7.316,0.885,10.892,1.697c2.471,0.562,3.522,2.919,4.514,5.028c3.537,7.538,5.077,15.491,4.57,23.798   c-0.52,8.524-2.223,16.853-4.579,25.044c-0.415,1.439-0.197,2.344,1.053,3.144c2.306,1.476,4.789,2.361,7.528,2.328   c3.679-0.046,6.065-2.438,6.475-6.751c0.586-6.209,1.006-12.438,1.445-18.66c0.396-5.601,0.763-11.203,1.062-16.81   c0.175-3.283,0.273-6.572,0.253-9.859c-0.014-2.422,1.223-3.929,3.163-5.024c0.41-0.229,0.976-0.326,1.45-0.276   c3.775,0.383,7.551,0.781,11.32,1.247c4.472,0.552,6.962,4.062,6.086,8.476c-1.611,8.115-3.443,16.196-4.761,24.359   c-1.056,6.537-1.485,13.177-2.183,19.771c-0.035,0.317,0.022,0.643,0.319,1.096c0.216-0.324,0.497-0.621,0.646-0.976   c5.282-12.588,10.689-25.128,15.755-37.805c1.795-4.497,2.732-9.333,4.095-14.005c0.52-1.786,1.073-3.568,1.723-5.312   c0.712-1.904,2.286-2.666,4.199-2.526c2.542,0.187,5.073,0.543,7.604,0.869c0.43,0.055,0.86,0.278,1.246,0.501   c2.099,1.205,4.165,2.472,6.28,3.649c2.112,1.178,2.553,2.1,1.72,4.442c-0.852,2.402-1.985,4.712-2.716,7.146   c-2.55,8.503-3.995,17.229-4.735,26.059c-0.325,3.894-0.361,7.816-0.395,11.726c-0.022,2.878,0.879,5.382,3.677,6.771   c2.759,1.373,5.409,1.115,7.822-0.77c4.552-3.56,8.365-7.781,11.256-12.818c0.835-1.455,1.753-2.861,2.633-4.292   C421.82,124.46,422.054,124.462,422.288,124.466z M305.909,98.674c-0.193-0.027-0.387-0.056-0.58-0.083   c-0.129,0.166-0.311,0.313-0.375,0.5c-0.636,1.876-1.336,3.736-1.859,5.644c-3.668,13.339-4.608,26.886-2.713,40.581   c0.396,2.882,1.313,5.739,2.352,8.471c1.381,3.642,3.683,4.037,7.233,2.1c0.628-0.343,1.273-0.854,1.625-1.456   c1.683-2.868,3.247-5.804,4.895-8.692c0.647-1.139,0.385-2.035-0.273-3.114c-1.561-2.555-3.23-5.1-4.355-7.852   c-3.695-9.062-5.137-18.642-5.916-28.327C305.733,103.87,305.909,101.265,305.909,98.674z M320.572,133.602   c0.278-0.849,0.499-1.346,0.601-1.867c1.788-9.249,1.813-18.489-0.363-27.674c-0.414-1.742-1.212-3.407-1.961-5.05   c-0.413-0.903-1.248-1.715-2.299-1.273c-0.72,0.304-1.376,1.082-1.746,1.808c-0.367,0.722-0.5,1.654-0.463,2.481   c0.241,5.255,0.073,10.594,0.987,15.738c0.874,4.915,2.892,9.627,4.427,14.422C319.881,132.58,320.169,132.918,320.572,133.602z"/>
	<path fill-rule="evenodd" clip-rule="evenodd" d="M72.703,38.391c2.935,0.244,5.866,0.546,8.807,0.707   c1.512,0.082,3.076,0.112,4.548-0.179c4.917-0.974,9.333,0.963,11.856,5.283c2.687,4.601,4.174,9.658,5.731,14.693   c1.407,4.547,2.787,9.103,4.228,13.641c0.749,2.359,0.203,3.871-2.021,5.118c-2.507,1.406-5.031,2.782-7.534,4.195   c-1.861,1.052-3.731,1.132-5.879,0.823c-3.831-0.548-5.439-2.868-6.417-6.257c-1.557-5.393-3.784-10.53-6.015-15.687   c-2.714-6.273-11.058-7.14-15.64-5.458c-12.772,4.679-13.807,21.06-5.81,29.042c3.308,3.302,7.254,5.615,11.307,7.773   c6.955,3.705,14.063,7.135,20.928,10.999c5.689,3.2,11.242,6.811,15.236,12.088c5.439,7.188,8.205,15.481,6.695,24.441   c-2.411,14.322-10.253,25.073-23.447,31.392c-7.931,3.796-16.479,4.321-25.143,3.011c-6.03-0.912-11.914-2.285-17.383-5.101   c-4.463-2.297-8.666-4.99-12.164-8.608c-2.273-2.351-4.369-4.887-6.397-7.458c-2.105-2.663-1.974-5.728,0.217-8.368   c1.157-1.396,2.581-2.591,3.602-4.07c1.002-1.455,1.665-3.147,2.437-4.755c0.217-0.452,0.236-0.997,0.443-1.457   c0.862-1.909,2.76-2.557,4.284-1.137c1.678,1.563,3.098,3.438,4.45,5.309c4.035,5.582,8.77,10.292,15.5,12.454   c7.622,2.45,15.386,3.459,23.282,1.462c3.209-0.813,5.974-2.571,8-5.197c2.085-2.705,2.499-8.232-0.635-12.431   c-3.098-4.149-7.087-7.077-11.645-9.424c-7.708-3.969-15.476-7.853-22.97-12.202c-7.841-4.551-14.324-10.783-19.393-18.311   c-2.866-4.254-4.056-9.191-4.317-14.326c-0.326-6.434,0.48-12.69,2.994-18.653c1.677-3.976,4.511-7.178,7.32-10.372   c4.331-4.927,10.085-7.627,16.004-9.992C62.533,39.473,67.491,38.297,72.703,38.391z"/>
	<path fill-rule="evenodd" clip-rule="evenodd" d="M96.833,233.654c0-6.564-0.002-12.801,0.001-19.039   c0.006-13.729,0.035-27.459-0.008-41.189c-0.004-1.415,0.543-2.133,1.637-2.992c2.744-2.157,5.269-4.591,7.985-7.007   c0,0.492,0,1.173,0,1.854c-0.003,18.556-0.021,37.108,0,55.66c0.004,3.888-0.458,3.37,3.326,3.36   c21.842-0.061,43.684-0.146,65.527-0.229c28.592-0.108,57.186-0.224,85.779-0.334c23.204-0.087,46.406-0.168,69.608-0.256   c3.744-0.015,7.489-0.101,11.232-0.037c1.433,0.023,1.833-0.475,1.833-1.859c-0.005-15.033,0.042-30.067,0.072-45.102   c0.006-2.033,0.002-4.063,0.002-6.435c1.103,0.496,1.97,0.834,2.792,1.263c2.007,1.052,3.957,2.213,6,3.188   c0.877,0.421,0.911,1.004,0.91,1.769c-0.014,5.392,0.007,10.781-0.019,16.171c-0.052,12.648-0.123,25.296-0.185,37.942   c-0.003,0.721,0,1.441,0,2.384C267.755,233.062,182.411,233.357,96.833,233.654z"/>
	<path fill-rule="evenodd" clip-rule="evenodd" d="M96.904,6.918c85.531-0.324,171.02-0.648,256.687-0.973   c0,25.768,0,51.417,0,77.332c-3.709-1.324-6.81-0.588-9.517,2.817c0-2.04,0-3.542,0-5.043c-0.001-21.11-0.002-42.218-0.007-63.328   c0-2.135-0.007-2.147-2.164-2.139c-25.699,0.093-51.399,0.192-77.1,0.284c-24.908,0.089-49.816,0.161-74.727,0.258   c-27.233,0.105-54.468,0.231-81.701,0.35c-1.898,0.008-1.916,0.016-1.917,2.042c-0.013,11.349-0.016,22.697-0.022,34.048   c0,0.503,0,1.01-0.28,1.606c-0.355-1.041-0.634-2.114-1.077-3.115c-1.555-3.51-3.084-7.035-4.803-10.464   c-0.534-1.065-1.686-1.807-2.462-2.772c-0.458-0.568-1.034-1.284-1.039-1.938c-0.073-9.188-0.057-18.377-0.054-27.565   C96.722,7.934,96.819,7.551,96.904,6.918z"/>
	<path fill-rule="evenodd" clip-rule="evenodd" d="M106.175,82.167c0,9.196,0,18.123,0,27.062c-2.403-1.9-4.601-3.962-7.113-5.517   c-1.926-1.193-2.496-2.521-2.375-4.677c0.211-3.732,0.146-7.479,0.132-11.22c-0.003-1.014,0.342-1.334,1.327-1.721   c2.457-0.964,4.784-2.256,7.16-3.422C105.546,82.556,105.769,82.406,106.175,82.167z"/>
	<g>
		<path fill-rule="evenodd" clip-rule="evenodd" d="M379.599,223.481c0.005,4.971-4.034,9.009-9.006,9.009    c-4.973,0-9.011-4.037-9.008-9.009c0.002-4.975,4.04-9.01,9.01-9.007C375.57,214.48,379.597,218.508,379.599,223.481z     M363.414,223.484c0.001,3.965,3.216,7.179,7.18,7.177c3.965-0.001,7.179-3.215,7.177-7.18c-0.001-3.965-3.217-7.178-7.178-7.176    C366.627,216.307,363.414,219.521,363.414,223.484z"/>
		<path fill-rule="evenodd" clip-rule="evenodd" d="M366.644,227.99c0-3.141,0-6.278,0-9.423c0.017,0,0.034,0,0.048,0    c1.224,0,2.446-0.001,3.667,0c0.475,0,0.944,0.027,1.411,0.114c0.362,0.07,0.714,0.172,1.042,0.343    c0.528,0.28,0.879,0.707,1.033,1.286c0.146,0.553,0.153,1.111,0.005,1.666c-0.155,0.58-0.508,1.011-1.021,1.313    c-0.197,0.116-0.406,0.204-0.621,0.276c-0.017,0.006-0.035,0.013-0.058,0.019c0.088,0.029,0.171,0.054,0.249,0.085    c0.319,0.129,0.57,0.348,0.787,0.608c0.271,0.325,0.474,0.692,0.662,1.071c0.424,0.861,0.849,1.724,1.275,2.587    c0.008,0.016,0.016,0.032,0.024,0.056c-0.02,0-0.033,0.002-0.05,0.002c-0.83,0-1.658,0-2.488,0.001    c-0.038,0-0.055-0.015-0.07-0.046c-0.384-0.782-0.768-1.566-1.152-2.349c-0.109-0.221-0.236-0.432-0.387-0.629    c-0.241-0.307-0.553-0.49-0.94-0.521c-0.325-0.026-0.653-0.021-0.985-0.032c0,1.199,0,2.384,0,3.573    C368.262,227.99,367.455,227.99,366.644,227.99z M369.075,222.744c0.016,0.001,0.027,0.003,0.041,0.003    c0.323,0,0.646,0.001,0.97,0c0.242-0.002,0.482-0.017,0.718-0.085c0.346-0.102,0.576-0.318,0.664-0.669    c0.074-0.301,0.076-0.602,0.004-0.902c-0.081-0.339-0.291-0.559-0.622-0.663c-0.224-0.069-0.451-0.095-0.683-0.099    c-0.349-0.002-0.7-0.001-1.051-0.001c-0.014,0-0.025,0.003-0.041,0.003C369.075,221.138,369.075,221.94,369.075,222.744z"/>
	</g>
</g>
</svg>