<svg id="Layer_1" data-name="Layer 1" xmlns="http://www.w3.org/2000/svg" viewBox="0 0 506.7 189.4"><defs><style>.cls-1{fill:#000000;}</style></defs><title>Artboard 2</title><path class="cls-1" d="M34.6,114.1A85.5,85.5,0,0,0,6.2,137.4s7-14,23.9-26.3C30.1,111.1,32.7,113,34.6,114.1Z"/><path class="cls-1" d="M49.8,107.8a114.6,114.6,0,0,1,39.5-5.5C75.6,93.7,66.2,84,59.8,74.6c-1.6-.5-7.5-1.4-7.5-1.4,7.9,14.5,17.2,21.1,17.2,21.1a97.3,97.3,0,0,0-28.1,9.7A67.1,67.1,0,0,0,49.8,107.8Z"/><path class="cls-1" d="M76,41.3A85.1,85.1,0,0,0,46.8,27.7s-2.2,15,5.7,33.7c0,0-4.4-.5-5.8-.5a101.8,101.8,0,0,1-5.5-38.5s16.6,0,35.8,12.9A61,61,0,0,0,76,41.3Z"/><path class="cls-1" d="M131.3,22.1A130.2,130.2,0,0,1,149.2,3a118.9,118.9,0,0,0-20.4,15.3S130.9,21.2,131.3,22.1Z"/><path class="cls-1" d="M123.4,33.4c-8.3,13.2-15.7,30-16.7,49.2,0,0-4.6-15.9-19-31a70.9,70.9,0,0,1,.4-7.6,106.4,106.4,0,0,1,16.2,19.2s.5-16.9,16.4-36.1C120.7,27,122.9,31.6,123.4,33.4Z"/><path class="cls-1" d="M200.5,41.5s-53.9,1.9-75.5,46.3c0,0,19.6-59.1-21.8-82.1,0,0-35.7,37.8-5,84.1,0,0-44.4-33.8-85.9-12.2,0,0,24.4,52.9,90.2,31.5,0,0-65.6,38.5-94.7-32.5,0,0,30.4-29.6,78.6-.3,0,0-26-37.1,15.4-76.3,0,0,45.5,17.2,31.9,64.8C133.6,64.8,149.2,40.7,200.5,41.5Z"/><path class="cls-1" d="M164.9,118.2l1.7,2.9a19,19,0,0,1-5,2.3,23.7,23.7,0,0,1-7.1.9,16.9,16.9,0,0,1-7.2-1.5,16.4,16.4,0,0,1-5.5-4.2,18.4,18.4,0,0,1-3.5-5.8,19.6,19.6,0,0,1,0-13.2,18.3,18.3,0,0,1,3.5-5.9,16.6,16.6,0,0,1,12.7-5.6,29.3,29.3,0,0,1,5.4.4,21.1,21.1,0,0,1,3.6,1l2.5,1.2L164.5,94l-1.5-.6-2-.8-2.7-.6-3.6-.2a11.1,11.1,0,0,0-4.9,1.1,12.6,12.6,0,0,0-4,3.1,14.4,14.4,0,0,0-2.7,4.6,16.1,16.1,0,0,0-1,5.6,15.3,15.3,0,0,0,1.8,7.3,13.5,13.5,0,0,0,4.8,5.2,11.9,11.9,0,0,0,6.6,1.9,18.9,18.9,0,0,0,5.9-.7A17.1,17.1,0,0,0,164.9,118.2Z"/><path class="cls-1" d="M176.2,123.6h-4.6V88.7h4.6Z"/><path class="cls-1" d="M181.6,92.2V88.7h26.8v3.4H197.3v31.4h-4.6V92.2Z"/><path class="cls-1" d="M233.6,88.7H238l-11.2,17.9v16.9h-4.6V106.7l-11-17.9h5l8.8,14.4Z"/><path class="cls-1" d="M271.4,88.1a17.7,17.7,0,0,1,9.1,2.3,14.5,14.5,0,0,1,5.8,6.4,21.4,21.4,0,0,1,2,9.4,21.2,21.2,0,0,1-1.3,7.4,16.6,16.6,0,0,1-3.6,5.8,15.4,15.4,0,0,1-5.4,3.7,17.4,17.4,0,0,1-6.7,1.3,18,18,0,0,1-6.9-1.3,15.1,15.1,0,0,1-5.4-3.7,16,16,0,0,1-3.5-5.7,21.9,21.9,0,0,1-1.2-7.4,20.8,20.8,0,0,1,1.2-7.2,16.8,16.8,0,0,1,3.4-5.7,15.6,15.6,0,0,1,5.4-3.8A17.7,17.7,0,0,1,271.4,88.1Zm0,3.4a10.8,10.8,0,0,0-6.3,1.8,11.9,11.9,0,0,0-4.2,5.2,21,21,0,0,0,0,15.4,11.8,11.8,0,0,0,4.2,5.2,10.8,10.8,0,0,0,6.3,1.9,11.2,11.2,0,0,0,4.9-1,10.8,10.8,0,0,0,3.8-3,13.3,13.3,0,0,0,2.4-4.7,20.1,20.1,0,0,0,.8-6,19.8,19.8,0,0,0-.9-6,13.4,13.4,0,0,0-2.4-4.6,10.7,10.7,0,0,0-3.7-3A11.2,11.2,0,0,0,271.4,91.5Z"/><path class="cls-1" d="M299.5,123.6h-4.6V88.7h18v3.4H299.5v11.7h9.4v3.5h-9.4Z"/><path class="cls-1" d="M112.5,138.6,93.7,189.8H89L72.2,138.6h8.9l11.2,35.8,12.4-35.8Z"/><path class="cls-1" d="M124.2,176.8l-4.9,12.6h-7.9l20.7-50.9h5.2L156,189.4H147l-4.6-12.6Zm16-5.9-6.7-18.3-7.1,18.3Z"/><path class="cls-1" d="M199.9,138.6h7.7v50.8h-7.7l-28.7-36.6v36.6h-7.6V138.6h7.4l29,37.2Z"/><path class="cls-1" d="M256,180.4l2.8,5.8a30.9,30.9,0,0,1-7.5,3.1,40.7,40.7,0,0,1-10.5,1.1,26.4,26.4,0,0,1-10.5-2.1,24.6,24.6,0,0,1-8.3-5.8,25.6,25.6,0,0,1-5.4-8.5,28,28,0,0,1,0-20.1,25.9,25.9,0,0,1,5.4-8.5,24.7,24.7,0,0,1,8.3-5.7,26.1,26.1,0,0,1,10.5-2,44.9,44.9,0,0,1,8.2.6,27.2,27.2,0,0,1,5.3,1.4,30.8,30.8,0,0,1,3.7,1.8l-2.6,6.1-3.3-1.4a27,27,0,0,0-4.2-1.1,31.4,31.4,0,0,0-6.3-.5,15.7,15.7,0,0,0-8.5,2.5,18.7,18.7,0,0,0-6.5,7.1,20.9,20.9,0,0,0-2.4,10,20.2,20.2,0,0,0,2.5,10,19,19,0,0,0,6.6,7.1,16.2,16.2,0,0,0,8.8,2.6,28.5,28.5,0,0,0,8-.9A33.5,33.5,0,0,0,256,180.4Z"/><path class="cls-1" d="M290.1,137.6a27.2,27.2,0,0,1,13.6,3.3,22.9,22.9,0,0,1,9,9.3,28.6,28.6,0,0,1,3.2,13.7,28.3,28.3,0,0,1-2,10.8,24.5,24.5,0,0,1-5.6,8.4,23.9,23.9,0,0,1-8.3,5.4,28.3,28.3,0,0,1-23.2-1.4,22.8,22.8,0,0,1-9.2-9.2,30.3,30.3,0,0,1-1.4-24.4,25.3,25.3,0,0,1,5.3-8.4,24.1,24.1,0,0,1,8.2-5.6A25.9,25.9,0,0,1,290.1,137.6Zm0,6.4a15,15,0,0,0-12,5.6,18.8,18.8,0,0,0-3.3,6.4,27.1,27.1,0,0,0-1.1,8,26.6,26.6,0,0,0,1.1,7.9,18.8,18.8,0,0,0,3.3,6.4,14.9,14.9,0,0,0,12,5.7,15.1,15.1,0,0,0,8.7-2.6,16.9,16.9,0,0,0,5.8-7.2,25.1,25.1,0,0,0,2-10.3,26.4,26.4,0,0,0-1.1-7.9,19.1,19.1,0,0,0-3.3-6.4,15.5,15.5,0,0,0-5.2-4.2A15.2,15.2,0,0,0,290.1,144Z"/><path class="cls-1" d="M365.6,138.6v33.9a17.8,17.8,0,0,1-2.2,8.5,16.5,16.5,0,0,1-6.8,6.7,23,23,0,0,1-11.5,2.7,25.7,25.7,0,0,1-11.1-2.2,15.9,15.9,0,0,1-7-6.1,18.2,18.2,0,0,1-2.3-9.3V138.6h8.8v33.2a15.4,15.4,0,0,0,1.3,6.7,8.2,8.2,0,0,0,4,4,16.2,16.2,0,0,0,7,1.3,12.7,12.7,0,0,0,6.6-1.6,11,11,0,0,0,4-4.4,13.2,13.2,0,0,0,1.4-5.9V138.6Z"/><path class="cls-1" d="M412.5,138.6l-18.8,51.2h-4.8l-16.8-51.2h8.9l11.2,35.8,12.4-35.8Z"/><path class="cls-1" d="M449.8,182.9v6.5H419V138.6h29.9v6.5H427.8V160h15.4v6.5H427.8v16.4Z"/><path class="cls-1" d="M495.6,189.4l-9.8.7-14.3-23.6h-5.2v22.9h-8.8V138.6h14.1a24.4,24.4,0,0,1,10,1.9,14,14,0,0,1,6.2,4.9,11.1,11.1,0,0,1,2,6.3,12.4,12.4,0,0,1-3.1,8.3,14.2,14.2,0,0,1-6.6,4.6Zm-29.4-28.8h4.7c3.3,0,5.8-.8,7.6-2.4a7.4,7.4,0,0,0,2.7-5.6,7.3,7.3,0,0,0-2.5-5.7q-2.5-2.3-7.7-2.3h-4.7Z"/></svg>